<svg xmlns="http://www.w3.org/2000/svg" viewBox="0 0 800 450" width="100%" height="100%">
  <rect width="100%" height="100%" fill="#ffffff"/>
  <text x="400" y="30" font-family="Arial, sans-serif" font-size="16" font-weight="bold" text-anchor="middle" fill="#111827">Figure 7: Cross-Model Security Consistency (3 Independent LLMs)</text>
  <rect x="120" y="100" width="160" height="280" fill="#f3f4f6" rx="6"/>
  <text x="200" y="90" font-family="Arial" font-size="13" font-weight="bold" text-anchor="middle">Llama-3.3-70B</text>
  <rect x="140" y="140" width="40" height="240" fill="#eab308"/><text x="160" y="130" font-family="Arial" font-size="10" text-anchor="middle">38%</text>
  <rect x="200" y="350" width="40" height="30" fill="#10b981"/><text x="220" y="340" font-family="Arial" font-size="10" font-weight="bold" text-anchor="middle">4.4%</text>

  <rect x="320" y="100" width="160" height="280" fill="#f3f4f6" rx="6"/>
  <text x="400" y="90" font-family="Arial" font-size="13" font-weight="bold" text-anchor="middle">DeepSeek-R1-32B</text>
  <rect x="340" y="145" width="40" height="235" fill="#eab308"/><text x="360" y="135" font-family="Arial" font-size="10" text-anchor="middle">39%</text>
  <rect x="400" y="355" width="40" height="25" fill="#10b981"/><text x="420" y="345" font-family="Arial" font-size="10" font-weight="bold" text-anchor="middle">3.8%</text>

  <rect x="520" y="100" width="160" height="280" fill="#f3f4f6" rx="6"/>
  <text x="600" y="90" font-family="Arial" font-size="13" font-weight="bold" text-anchor="middle">GPT-4o-Mini</text>
  <rect x="540" y="150" width="40" height="230" fill="#eab308"/><text x="560" y="140" font-family="Arial" font-size="10" text-anchor="middle">36%</text>
  <rect x="600" y="352" width="40" height="28" fill="#10b981"/><text x="620" y="342" font-family="Arial" font-size="10" font-weight="bold" text-anchor="middle">4.1%</text>
</svg>
